<svg width="1200" height="760" viewBox="0 0 1200 760" fill="none" xmlns="http://www.w3.org/2000/svg">
  <defs>
    <linearGradient id="bg" x1="80" y1="80" x2="1100" y2="700" gradientUnits="userSpaceOnUse">
      <stop stop-color="#F8FBFF"/>
      <stop offset="1" stop-color="#DCE9FF"/>
    </linearGradient>
    <linearGradient id="line" x1="130" y1="500" x2="1080" y2="220" gradientUnits="userSpaceOnUse">
      <stop stop-color="#F4A720"/>
      <stop offset="1" stop-color="#FF7F00"/>
    </linearGradient>
  </defs>
  <rect x="20" y="20" width="1160" height="720" rx="56" fill="url(#bg)"/>
  <rect x="80" y="110" width="1040" height="450" rx="30" fill="#FFFFFF" fill-opacity="0.6"/>
  <path d="M130 500C210 500 240 470 310 460C390 448 430 380 500 390C590 402 600 500 690 500C760 500 800 470 850 420C900 370 940 260 1000 260C1040 260 1050 290 1080 300" stroke="url(#line)" stroke-width="14" stroke-linecap="round"/>
  <rect x="110" y="610" width="980" height="70" rx="20" fill="#FFFFFF" fill-opacity="0.8"/>
  <rect x="150" y="635" width="220" height="20" rx="10" fill="#D6E1F5"/>
  <rect x="820" y="635" width="230" height="20" rx="10" fill="#C9D7F2"/>
</svg>
